<?xml version="1.0" encoding="UTF-8"?>
<svg width="162px" height="32px" viewBox="0 0 162 32" version="1.1" xmlns="http://www.w3.org/2000/svg" xmlns:xlink="http://www.w3.org/1999/xlink">
    <!-- Generator: Sketch 61.2 (89653) - https://sketch.com -->
    <title>conekta-logo</title>
    <desc>Created with Sketch.</desc>
    <g id="Referencia-OXXO" stroke="none" stroke-width="1" fill="none" fill-rule="evenodd">
        <g id="conekta-logo" fill-rule="nonzero">
            <g id="brand/type/primary" transform="translate(38.329776, 1.055015)" fill="#FFFFFF">
                <g id="type-dark">
                    <path d="M47.4153806,6.87147705 C51.0476799,6.87147705 53.4691224,9.587225 53.4691224,12.9585825 L53.4691224,24.5417412 L48.691066,24.5417412 L48.691066,14.4960235 C48.691066,12.7613843 47.5133016,11.4851563 45.8448472,11.4851563 C44.1099367,11.4851563 42.8993511,12.7939342 42.8993511,14.5285734 L42.8993511,24.5417412 L38.121566,24.5417412 L38.121566,7.29598219 L42.8993511,7.29598219 L42.8993511,8.86732937 L43.2272915,8.86732937 C44.0114732,7.75574975 45.4189858,6.87147705 47.4153806,6.87147705 Z M27.4874272,20.4184535 C30.0398831,20.4184535 31.8065297,18.4879723 31.8065297,15.9349739 C31.8065297,13.3496969 30.0398831,11.4197581 27.4874272,11.4197581 C24.9349713,11.4197581 23.1344185,13.3496969 23.1344185,15.9349739 C23.1344185,18.4879723 24.9349713,20.4184535 27.4874272,20.4184535 Z M27.4874272,6.87144992 C32.8866444,6.87144992 36.6499572,10.8306046 36.6499572,15.9349739 C36.6499572,21.0396144 32.8530095,24.967033 27.4874272,24.967033 C22.0879387,24.967033 18.292076,21.0396144 18.292076,15.9349739 C18.292076,10.7980547 22.1207599,6.87144992 27.4874272,6.87144992 Z M9.09743014,11.4198124 C6.47960319,11.4198124 4.84288493,13.3831148 4.84288493,15.9350282 C4.84288493,18.4549341 6.51242435,20.4185078 9.09743014,20.4185078 C11.1261036,20.4185078 12.6640871,19.3055719 13.1878695,17.4076406 L17.6377142,18.4880265 C16.5578708,22.7748504 13.1550484,24.966816 8.96695923,24.966816 C3.53464958,24.966816 -8.52651283e-14,20.909469 -8.52651283e-14,15.9350282 C-8.52651283e-14,10.8965725 3.53464958,6.87150417 8.96695923,6.87150417 C13.1550484,6.87150417 16.5253209,9.09601965 17.6377142,13.4151222 L13.2198769,14.5286006 C12.6969083,12.5647556 11.1261036,11.4198124 9.09743014,11.4198124 Z M111.06042,20.3858494 C113.54642,20.3858494 115.181782,18.3571759 115.181782,15.9349197 C115.181782,13.087887 113.284393,11.4850749 111.026514,11.4850749 C108.736899,11.4850749 106.902982,13.2186292 106.902982,15.9349197 C106.902982,18.6517526 108.768364,20.3858494 111.06042,20.3858494 Z M120.678649,20.5502264 L123.23219,20.5502264 L123.23219,24.5416598 L117.047164,24.5416598 C115.935041,24.5416598 115.149775,23.6902083 115.149775,22.7088283 L114.788742,22.7088283 C113.873004,24.0186912 112.499398,24.9669787 110.011771,24.9669787 C105.594747,24.9669787 102.059284,21.0723813 102.059284,15.9029122 C102.059284,10.6989945 105.561926,6.87139567 109.979221,6.87139567 C112.172271,6.87139567 113.742533,7.72176221 114.755921,8.90006916 L115.116411,8.90006916 L115.116411,7.29617207 L119.893382,7.29617207 L119.893382,19.8292458 C119.893382,20.2873859 120.221052,20.5502264 120.678649,20.5502264 Z M96.6616939,2.58446329 L96.6616939,7.29606357 L101.242823,7.29606357 L101.242823,11.5177876 L96.6616939,11.5177876 L96.6616939,19.1751552 C96.6616939,19.9273295 96.9557282,20.2547274 97.7409949,20.2547274 L101.04671,20.2547274 L101.04671,24.5418226 L97.2831261,24.5418226 C93.8149326,24.5418226 91.8836376,22.9710179 91.8836376,19.2077052 L91.8836376,11.5177876 L86.2104586,11.5177876 L83.834586,14.9859811 L83.834586,15.3470139 L89.3640029,24.5418226 L83.6704801,24.5418226 L79.8087039,17.4730659 L78.2723479,17.4730659 L78.2723479,24.5418226 L73.4937491,24.5418226 L73.4937491,4.26325641e-14 L78.2723479,4.26325641e-14 L78.2723479,13.0880498 L79.7118679,13.0880498 L83.4415457,7.29606357 L89.0374187,7.29606357 L89.1025186,7.29606357 L92.2110355,7.29606357 L92.2110355,2.58446329 L96.6616939,2.58446329 Z M59.5551157,13.9395827 L67.2122121,13.9395827 C66.9832777,12.2049435 65.4439379,10.8307945 63.415807,10.8307945 C61.190749,10.8307945 59.7837789,12.4007854 59.5551157,13.9395827 Z M63.415807,6.87136855 C68.7171032,6.87136855 72.0220046,10.7979734 72.0220046,15.9028851 L72.0220046,17.113742 L59.5220233,17.113742 C59.5551157,19.3716211 61.2232989,20.7449563 63.481178,20.7449563 C65.0514402,20.7449563 66.5576876,20.1232529 67.2122121,18.6840041 L71.4667573,19.6661978 C70.2225368,23.5268891 66.8842717,24.9669516 63.5470916,24.9669516 C58.2783453,24.9669516 54.613496,21.1377253 54.613496,15.9348925 C54.613496,10.5356753 58.6054719,6.87136855 63.415807,6.87136855 Z" id="Combined-Shape"></path>
                </g>
            </g>
            <g id="brand/icon/primary">
                <g id="icon-primary">
                    <path d="M30.5080967,20.7726066 C30.5080967,20.7726066 30.630822,18.4172659 28.9154813,18.4172659 C27.205767,18.4172659 25.8491077,21.6819692 20.9411516,25.4439033 C16.6165802,28.7578374 14.6135912,29.7456176 11.0897231,31.1662769 C11.0897231,31.1662769 12.3141626,31.978233 21.3701626,31.978233 C27.3752615,31.978233 30.5080967,31.8646505 30.5080967,20.7726066" id="Fill-14" fill="#FFFFFF"></path>
                    <path d="M30.5080967,11.205978 C30.5080967,11.205978 30.630822,13.560967 28.9154813,13.560967 C27.205767,13.560967 25.8491077,10.2962637 20.9411516,6.53432967 C16.6165802,3.2203956 14.6135912,2.23261538 11.0897231,0.811956044 C11.0897231,0.811956044 12.3141626,3.55271368e-14 21.3701626,3.55271368e-14 C27.3752615,3.55271368e-14 30.5080967,0.113582418 30.5080967,11.205978" id="Fill-17" fill="#E70094"></path>
                    <path d="M15.8836044,7.86876484 C12.6825495,5.85628132 10.6700659,4.8459956 8.1803956,3.97601758 C6.41934066,3.57654505 5.21248352,4.35825934 4.64421978,4.86498462 C1.79551648,7.7165011 0.0277802198,11.6461714 4.61852778e-14,15.9893802 C0.0277802198,20.3318857 1.79551648,24.261556 4.64421978,27.1134242 C5.21248352,27.6205011 6.41934066,28.4018637 8.1803956,28.0027429 C10.6700659,27.1320615 12.6825495,26.1217758 15.8836044,24.109644 C15.1194725,21.2145231 14.8543297,18.4305231 14.842022,15.9893802 C14.8543297,13.5475341 15.1194725,10.7635341 15.8836044,7.86876484" id="Fill-19" fill="#00A0AE"></path>
                </g>
            </g>
        </g>
    </g>
</svg>