<?xml version="1.0" encoding="utf-8"?>
<!-- Generator: Adobe Illustrator 23.1.1, SVG Export Plug-In . SVG Version: 6.00 Build 0)  -->
<svg version="1.1" xmlns="http://www.w3.org/2000/svg" xmlns:xlink="http://www.w3.org/1999/xlink" x="0px" y="0px"
	 viewBox="0 0 485.4 675.2" style="enable-background:new 0 0 485.4 675.2;" xml:space="preserve">
<style type="text/css">
	.st0{fill:#00A1AF;}
	.st1{fill:#0B1737;}
	.st2{fill:url(#SVGID_1_);}
	.st3{clip-path:url(#SVGID_3_);}
	.st4{fill:url(#SVGID_4_);}
	.st5{fill:url(#SVGID_5_);}
	.st6{fill:url(#SVGID_6_);}
	.st7{fill:#EEEFF1;}
	.st8{fill:#007C9A;}
	.st9{fill:#EAD1BE;}
	.st10{fill:#EFDDCF;}
	.st11{fill:#27314F;}
	.st12{fill:#A1DCE2;}
	.st13{fill:#DEB89A;}
	.st14{fill:#0096A5;}
	.st15{fill:#005E7C;}
	.st16{fill:#E6AB86;}
	.st17{fill:#BBBFC8;}
	.st18{fill:#AAAEB9;}
	.st19{fill:#72798B;}
	.st20{fill:#596177;}
	.st21{fill:#2F3955;}
	.st22{fill:none;stroke:#0B1737;stroke-width:3.8989;stroke-linecap:round;stroke-miterlimit:10;}
	.st23{fill:#2E3954;}
	.st24{fill:#00A1AF;stroke:#0B1737;stroke-width:1.7653;stroke-miterlimit:10;}
	.st25{fill:#ADB1BC;}
	.st26{fill:#E50695;}
	.st27{opacity:0.67;fill:#0B1737;}
	.st28{fill:none;stroke:#E50695;stroke-width:3.381;stroke-linecap:round;stroke-miterlimit:10;}
	.st29{fill:#DCDCDC;}
	.st30{fill:none;stroke:#0A1537;stroke-miterlimit:10;}
	.st31{fill:#87D3D9;}
	.st32{fill:none;stroke:#FFFFFF;stroke-width:0.4744;stroke-miterlimit:10;}
	.st33{fill:#008391;}
	.st34{fill:#1B909D;}
	.st35{fill:#56C1CA;}
	.st36{fill:#FFFFFF;}
	.st37{fill:#0A1537;}
	.st38{opacity:0.16;fill:#BBBFC8;}
	.st39{fill:none;stroke:#0B1737;stroke-width:1.3365;stroke-linecap:round;stroke-miterlimit:10;}
	.st40{fill:#00A1AF;stroke:#0B1737;stroke-width:0.6051;stroke-miterlimit:10;}
	.st41{fill:none;stroke:#E50695;stroke-width:1.159;stroke-linecap:round;stroke-miterlimit:10;}
	.st42{clip-path:url(#SVGID_8_);}
	.st43{clip-path:url(#SVGID_10_);fill:#0A1837;}
	.st44{clip-path:url(#SVGID_10_);fill:#E40695;}
	.st45{clip-path:url(#SVGID_10_);fill:#02A8AD;}
	.st46{fill:#008D9B;}
	.st47{fill:#D9AD8A;}
	.st48{fill:#D7AA86;}
	.st49{opacity:0.17;fill:#0A798A;}
	.st50{fill:#845959;}
	.st51{fill:#C9E7EA;}
	.st52{fill:#5D2525;}
	.st53{clip-path:url(#SVGID_12_);}
	.st54{clip-path:url(#SVGID_14_);fill:#1D1846;}
	.st55{clip-path:url(#SVGID_14_);fill:#E80E8A;}
	.st56{clip-path:url(#SVGID_14_);fill:#00A6AB;}
	.st57{fill:none;stroke:#0B1737;stroke-width:2.6514;stroke-linecap:round;stroke-miterlimit:10;}
	.st58{fill:#00A1AF;stroke:#0B1737;stroke-width:1.2005;stroke-miterlimit:10;}
	.st59{fill:none;stroke:#E50695;stroke-width:2.2992;stroke-linecap:round;stroke-miterlimit:10;}
	.st60{fill:#3A445E;}
	.st61{fill:#36B5C0;}
	.st62{fill:#00778B;}
	.st63{fill:#9FDCE1;}
	.st64{fill:none;stroke:#0B1737;stroke-width:2.965;stroke-linecap:round;stroke-miterlimit:10;}
	.st65{fill:#00A1AF;stroke:#0B1737;stroke-width:1.3424;stroke-miterlimit:10;}
	.st66{fill:none;stroke:#E50695;stroke-width:2.5711;stroke-linecap:round;stroke-miterlimit:10;}
	.st67{fill:#006072;}
	.st68{fill:#002E30;}
	.st69{fill:#D8AC89;}
	.st70{fill:#C6C8D0;}
	.st71{fill:#AAADB9;}
	.st72{fill:none;stroke:#00A1AF;stroke-width:1.0538;stroke-miterlimit:10;}
	.st73{fill:#DFE1E5;}
	.st74{fill:none;stroke:#0A1537;stroke-width:0.8913;stroke-miterlimit:10;}
	.st75{fill:#3A425E;}
	.st76{fill:#A4A8B5;}
	.st77{fill:#CFD1D8;}
	.st78{fill:#9A9EAD;}
	.st79{fill:none;stroke:#DFE1E5;stroke-width:4;stroke-miterlimit:10;}
	.st80{fill:none;stroke:#DFE1E5;stroke-width:4;stroke-linecap:round;stroke-miterlimit:10;}
	.st81{fill:#D5D7DC;}
	.st82{fill:#D6D6DD;}
	.st83{fill:#F8F8F9;}
	.st84{fill:#2EB2BD;}
	.st85{fill:#006684;}
	.st86{fill:none;stroke:#00A1AF;stroke-width:0.5021;stroke-miterlimit:10;}
	.st87{fill:#1D1846;}
	.st88{fill:#E80E8A;}
	.st89{fill:#00A6AB;}
	.st90{opacity:0.47;fill:#006684;}
	.st91{fill:none;stroke:#0B1737;stroke-width:3;stroke-linecap:round;stroke-miterlimit:10;}
</style>
<g id="Layer_2">
	<path class="st1" d="M445.1,27.3h-236c-4.4,0-8,3.6-8,8v574.5c0,4.4,3.6,8,8,8h236c4.4,0,8-3.6,8-8V35.3
		C453.1,30.9,449.5,27.3,445.1,27.3z"/>
	<linearGradient id="SVGID_1_" gradientUnits="userSpaceOnUse" x1="293.9372" y1="74.4431" x2="361.6536" y2="615.0458">
		<stop  offset="0.1003" style="stop-color:#E50A95"/>
		<stop  offset="0.9972" style="stop-color:#0A1537"/>
	</linearGradient>
	<path class="st2" d="M201.1,289.6v320.2c0,4.4,3.6,8,8,8h236c4.4,0,8-3.6,8-8c0,0,0-542,0-542c-74.8,12.6-131.9,58.3-157.3,130.4
		C279.6,243.8,262,300.2,201.1,289.6z"/>
</g>
<g id="Layer_1">
	<ellipse class="st7" cx="314.5" cy="651.3" rx="138.6" ry="23.9"/>
	<path class="st7" d="M187.9,651.3c0,11.5-33.9,20.9-75.7,20.9c-18.4,0-35.2-1.8-48.3-4.8c-3.3-0.7-6.6-0.9-9.9-0.4
		c-4.7,0.8-9.9,1.2-15.3,1.2c-21.3,0-38.7-6.6-38.7-14.8s17.3-14.8,38.7-14.8c2.2,0,4.3,0.1,6.3,0.2c3.2,0.2,6.5-0.2,9.6-1.2
		c13.9-4.5,34.5-7.3,57.6-7.3C154,630.4,187.9,639.7,187.9,651.3z"/>
	<rect x="140.7" y="415" class="st1" width="9.1" height="230.5"/>
	<path class="st1" d="M178.1,648.8c0,5.4-14.7,9.8-32.9,9.8s-32.9-4.4-32.9-9.8c0-5.4,14.7-15.8,32.9-15.8S178.1,643.4,178.1,648.8z
		"/>
	<path class="st8" d="M202.7,418.4c0,4.4-27.1,7.9-60.5,7.9s-60.5-3.5-60.5-7.9c0-1.4,0-4.7,0-4.7c10.4-2.4,38-3.2,60.5-3.2
		c29.3,0,54.9-0.7,60.5,2.9C202.7,413.4,202.7,417.9,202.7,418.4z"/>
	<path class="st10" d="M178.8,349.7l-2.2,10.5l-2.9,4.1l-4.7-3.9l-3.7-2.5l-3.5-3.4c0,0-1.5-4.7,2.5-6.1l4.1,4.6l3.3,2.7l1.7,2.7
		l1.3-3.9l2.1-5l1.7-3.3L178.8,349.7z"/>
	<ellipse class="st0" cx="142.1" cy="413.4" rx="60.5" ry="7.9"/>
	<path class="st0" d="M200.4,647.2v0.6h-0.2C200.4,647.6,200.4,647.4,200.4,647.2z"/>
	<g>
		<g>
			<path class="st18" d="M314.5,386.4L364,515.3c0.5,1.3,1.5,2.3,2.6,2.7c0.8,0.3,1.6,0.4,2.4,0.1l0.3-0.1c0.8-0.3,1.4-0.9,1.7-1.6
				c0.6-1,0.6-2.4,0.1-3.7l-49.5-128.9L314.5,386.4z"/>
			<path class="st19" d="M319.1,384.9v138c0,1.2-0.6,2.2-1.4,2.9c-0.6,0.5-1.4,0.8-2.2,0.8h-0.3c-0.8,0-1.6-0.3-2.2-0.8
				c-0.9-0.6-1.5-1.7-1.5-2.9v-138H319.1z"/>
			<path class="st18" d="M316.5,386.4L267,515.3c-0.5,1.3-1.5,2.3-2.6,2.7c-0.8,0.3-1.6,0.4-2.4,0.1l-0.3-0.1
				c-0.8-0.3-1.4-0.9-1.7-1.6c-0.6-1-0.6-2.4-0.1-3.7l49.5-128.9L316.5,386.4z"/>
			<circle class="st20" cx="316.4" cy="381.6" r="10.7"/>
			<path class="st21" d="M305.5,382.5H323l-12.7-17.3c-2.3-3.1-6.6-3.9-9.8-1.6c-3.1,2.3-3.9,6.6-1.6,9.8L305.5,382.5z"/>
			<line class="st22" x1="302.8" y1="383.7" x2="330" y2="383.7"/>
		</g>
		<path class="st18" d="M366.6,518l52.1,135.8c0.6,1.5,2,2.2,3.2,1.8c1.2-0.5,1.8-2,1.2-3.5L371,516.3c-0.4,0.8-1,1.4-1.7,1.6
			L369,518C368.2,518.4,367.3,518.3,366.6,518z"/>
		<path class="st1" d="M364.1,513c-1,0.4-1.6,1.3-1.3,2l4.3,11.4c0.4,1,1.4,1.6,2.6,1.7c0.9,0.1,1.9,0,2.9-0.4l0.4-0.1
			c1-0.4,1.8-1,2.4-1.6c0.9-0.9,1.2-2.1,0.8-3l-4.3-11.4c-0.3-0.8-1.3-1.1-2.3-0.7L364.1,513z"/>
		<path class="st1" d="M372,511.1c-0.2,0.1-0.2,0.3-0.1,0.6l2.8,7.7c0.1,0.3,0.4,0.6,0.6,0.7c0.2,0.1,0.4,0.1,0.6,0l0.1,0
			c0.2-0.1,0.3-0.2,0.4-0.4c0.1-0.3,0.1-0.6,0-1l-2.8-7.7c-0.1-0.3-0.3-0.4-0.5-0.4L372,511.1z"/>
		<circle class="st0" cx="368" cy="516" r="1.2"/>
		<path class="st19" d="M317.7,525.7v102.4c0,1.3-1.1,2.4-2.4,2.4s-2.4-1.1-2.4-2.4V525.7c0.6,0.5,1.4,0.8,2.2,0.8h0.3
			C316.3,526.5,317.1,526.2,317.7,525.7z"/>
		<path class="st18" d="M264.4,518l-52.1,135.8c-0.6,1.5-2,2.2-3.2,1.8s-1.8-2-1.2-3.5L260,516.3c0.4,0.8,1,1.4,1.7,1.6l0.3,0.1
			C262.8,518.4,263.6,518.3,264.4,518z"/>
		<path class="st1" d="M266.9,513c1,0.4,1.6,1.3,1.3,2l-4.3,11.4c-0.4,1-1.4,1.6-2.6,1.7c-0.9,0.1-1.9,0-2.9-0.4l-0.4-0.1
			c-1-0.4-1.8-1-2.4-1.6c-0.9-0.9-1.2-2.1-0.8-3l4.3-11.4c0.3-0.8,1.3-1.1,2.3-0.7L266.9,513z"/>
		<path class="st1" d="M259,511.1c0.2,0.1,0.2,0.3,0.1,0.6l-2.8,7.7c-0.1,0.3-0.4,0.6-0.6,0.7c-0.2,0.1-0.4,0.1-0.6,0l-0.1,0
			c-0.2-0.1-0.3-0.2-0.4-0.4c-0.1-0.3-0.1-0.6,0-1l2.8-7.7c0.1-0.3,0.3-0.4,0.5-0.4L259,511.1z"/>
		<circle class="st0" cx="263" cy="516" r="1.2"/>
		<path class="st23" d="M319.4,527.5h-8.1c-0.9,0-1.5-0.7-1.5-1.5v-11.5c0-0.9,0.7-1.5,1.5-1.5h8.1c0.9,0,1.5,0.7,1.5,1.5V526
			C320.9,526.9,320.2,527.5,319.4,527.5z"/>
	</g>
	<g>
		<path class="st1" d="M385.8,215.2c7.3,8.9,15.2,19.8,22.9,32.7c8.2,13.9,14.2,27.1,18.6,38.5c-21.9,12.8-43.1,25.1-65,37.8l-9-3.5
			l-15.3,8.9l-7.3-1.1L278.1,359l-18.8-4.1l-29.1,17l-8.6-1.3l-6,3.5l-8.9-15.3l6-3.5l3.2-8l28.5-16.6l5.1-20.8l52.5-30.5l2-7.9
			l15.3-8.9l1.4-9.6L385.8,215.2z"/>
		<path class="st24" d="M245.8,353.9c2.5,4.4,1.1,9.9-3.3,12.5c-4.4,2.5-9.9,1-12.5-3.3s-1.1-9.9,3.3-12.5
			C237.7,348,243.3,349.5,245.8,353.9z"/>
		<path class="st20" d="M213.8,378.1L213.8,378.1c2.8-1.6,3.7-5.2,2.1-7.9l-7.7-13.2c-1.6-2.8-5.2-3.7-7.9-2.1l-13.2,7.7
			c-2.8,1.6-3.7,5.2-2.1,7.9l0,0C190.8,380.5,203.7,383.9,213.8,378.1z"/>
		
			<rect x="184" y="354.9" transform="matrix(0.8642 -0.5031 0.5031 0.8642 -153.3846 145.4542)" class="st25" width="17.5" height="4"/>
		<polygon class="st25" points="198.4,349.2 183.3,358 177.4,347.9 193.6,341 		"/>
		<path class="st1" d="M199.4,350.7l-15.3,8.9c-0.3,0.2-0.7,0.1-0.9-0.2l-1.3-2.2c-0.2-0.3-0.1-0.7,0.2-0.9l15.3-8.9
			c0.3-0.2,0.7-0.1,0.9,0.2l1.3,2.2C199.8,350.1,199.7,350.5,199.4,350.7z"/>
		
			<rect x="326" y="353.8" transform="matrix(0.8642 -0.5031 0.5031 0.8642 -134.1109 214.0728)" class="st21" width="7.1" height="3.3"/>
		<path class="st20" d="M330.6,328.5l5,19.5c0.4,1.5-0.3,3.1-1.6,3.9l-33.8,19.7l-17.5-15.1L330.6,328.5z"/>
		<path class="st1" d="M319.7,358l-7.2,16.1c-2.2,5-8,7.2-13,5h0c-5-2.2-7.2-8-5-13l7.2-16.1c2.2-5,8-7.2,13-5l0,0
			C319.7,347.2,321.9,353.1,319.7,358z"/>
		<path class="st1" d="M311.1,367l-13,29c-0.6,1.4-2.3,2-3.7,1.4l-5.2-2.3c-1.4-0.6-2-2.3-1.4-3.7l13-29c0.6-1.4,2.3-2,3.7-1.4
			l5.2,2.3C311.1,364,311.7,365.6,311.1,367z"/>
		<path class="st1" d="M300,384.8l-13.5,30.1c-0.5,1.1-1.8,1.6-2.9,1.1l-1.2-0.5c-1.1-0.5-1.6-1.8-1.1-2.9l13.5-30.1
			c0.5-1.1,1.8-1.6,2.9-1.1l1.2,0.5C300,382.4,300.5,383.7,300,384.8z"/>
		<path class="st1" d="M292.1,411.2l-12.2,27.2c-0.8,1.9-3.1,2.7-5,1.9l-4.7-2.1c-1.9-0.8-2.7-3.1-1.9-5l12.2-27.2
			c0.8-1.9,3.1-2.7,5-1.9l4.7,2.1C292.1,407.1,292.9,409.3,292.1,411.2z"/>
		<circle class="st0" cx="310.5" cy="354.8" r="6.2"/>
		<polygon class="st20" points="320.7,253 362.2,324.2 353.1,320.7 319.3,262.6 		"/>
		<path class="st26" d="M338.3,354.7l-13.8,8c-0.2,0.1-0.4,0-0.5-0.1l-1.3-2.3c-0.1-0.2,0-0.4,0.1-0.5l13.8-8c0.2-0.1,0.4,0,0.5,0.1
			l1.3,2.3C338.5,354.4,338.5,354.6,338.3,354.7z"/>
		<polygon class="st20" points="304,271.4 337.9,329.6 330.6,328.5 302,279.3 		"/>
		<polygon class="st20" points="249.5,309.8 278.1,359 258.7,355.3 244.4,330.7 		"/>
		<polygon class="st20" points="215.9,347.2 230.2,371.9 221.6,370.6 212.7,355.3 		"/>
		<circle class="st26" cx="306" cy="370.3" r="4.4"/>
		<path class="st27" d="M402.1,286.8c-22.7-1.5-45.6,2.7-65.7,13.3c-0.1,0.1-0.2,0.1-0.4,0.2c-18.7,9.9-36.4,21.6-56,29.7
			c-7.4,3-15,5.6-22.5,8.3c-5.4,2.6-10.8,5-16.1,7.6c-9.2,4.5-17.7,10.3-26.7,15c-1.6,0.8-3-0.7-2.8-2c-0.4-0.1-0.7-0.2-1-0.4
			c-0.6-0.4-0.8-0.9-1.2-1.5l-1,0.6l-0.4-0.7c-1.6-2.8-9.9-0.9-12.7,0.7c0,0-2.2-4.2,3.8-6.8c-2.4-0.9-14,4.2-14.4-5.4
			c-0.2-0.1-5.9-0.1-6.1-0.1c-1.4,0.7-2.7,1.5-3.8,2.6c-0.7,0.7-0.7,1.7,0,2.4c0.9,0.9,2.4,0.6,2.9-0.8c0.3,0,0.2,0,0.5,0l4,6.9
			l-0.1,0.1c-0.3,0.2-0.4,0.6-0.2,0.9l1.3,2.2c0.2,0.3,0.6,0.4,0.9,0.2l0.1-0.1l2,3.4l0.9-0.5c-2.8,1.6-3.7,5.2-2.1,7.9
			c5.8,10,18.7,13.4,28.8,7.6c1.7-1,2.7-2.7,2.9-4.6l5-2.9l8.6,1.3l6.2-3.6c2.2,0.4,4.5,0,6.6-1.2c2.1-1.2,3.5-3.1,4.3-5.1l11.5-6.7
			l8.9,1.4l10.5,2.3l52.5-30.5l2.9,0.4l4.4,0.7l15.3-8.9l0,0l0.7,0.3l8.4,3.2l63.3-36.8C417.7,287.5,409.9,287.3,402.1,286.8z"/>
		<path class="st28" d="M176.2,349c1.7-1.6,3.6-2.6,5.9-3.2c2.3-0.6,4.7-1.2,6.8-2.3c2.1-1.1,3.8-2.8,5.1-4.8"/>
	</g>
	<polygon class="st1" points="416.8,651.3 425.5,651.3 426.9,656.2 416.8,656.2 	"/>
	<polygon class="st1" points="213.7,651.3 213.7,656.2 203.6,656.2 204.9,651.3 	"/>
	<path class="st1" d="M318.4,633h-6.2c-0.4,0-0.7-0.3-0.6-0.7l0.5-3.7c0-0.3,0.3-0.6,0.6-0.6h5.2c0.3,0,0.6,0.2,0.6,0.6l0.5,3.7
		C319.1,632.6,318.8,633,318.4,633z"/>
	<circle class="st36" cx="385" cy="54.1" r="1.6"/>
	<circle class="st36" cx="333.5" cy="234.1" r="1.6"/>
	<circle class="st37" cx="482.7" cy="123.5" r="2.7"/>
	<circle class="st37" cx="167.6" cy="176.2" r="2.7"/>
	<circle class="st37" cx="470.2" cy="281.6" r="1.2"/>
	<circle class="st37" cx="227.4" cy="5.4" r="2.9"/>
	<circle class="st37" cx="426.2" cy="2.7" r="2.7"/>
	<circle class="st36" cx="224.5" cy="84.1" r="2.7"/>
	<circle class="st36" cx="417.5" cy="104.1" r="2.7"/>
	<circle class="st36" cx="350" cy="142.9" r="2.7"/>
	<circle class="st36" cx="240.3" cy="212.2" r="2.7"/>
	<circle class="st36" cx="305.4" cy="43.4" r="2.7"/>
	<circle class="st36" cx="269.7" cy="138" r="1.4"/>
	<g>
		<polygon class="st13" points="156.5,408.1 157.3,409.5 153.4,409.5 154.4,407.5 156.2,406.7 		"/>
		<polygon class="st13" points="143,405.6 144,407.8 139.9,406.2 141.3,404.7 142.9,404.1 		"/>
		<path class="st37" d="M143,405.6l9.1-13.4l2.7-3.8l0.3-20.3l-6-1.7c-1.8-0.5-3.6,0.9-3.6,2.8l5.1,18l-2.6,3l-6.6,14.6L143,405.6z"
			/>
		<path class="st11" d="M148.4,361.4c-0.9,1.2-2,3-2.7,5.3c-0.1,0.4-0.2,0.8-0.3,1.2c-0.5,2,0,4.2,1.3,5.8c0,0,0,0,0,0
			c1.2,1.3,2.4,2.2,3.3,2.7c2.7,1.7,4.1,3.2,6.1,4.7l7.4,4.4l-1.8,3l-7.3,19l2.1,0.6l11.1-21.3l0.5-2.4l-12-16.4l0.2-1L148.4,361.4z
			"/>
		<path class="st0" d="M168.2,346.4c-1-2.7-3.4-4.3-3.4-4.3l-0.1,0c-3-0.8-5.7,0.9-5.9,1c-7.7,6.7-8.3,9.5-12.5,21.5
			c0.7,0.1,2.3,0.1,3.5,0.5c1.3,0.5,1.9,1,2.8,1.4c0.9,0.4,2.1,1.5,4,1.5c0.5-1.4,1-2.5,1.1-3.3c0.2-1,0.8-2.2,1.2-3.1
			c0.7-1.9,1.4-2.6,2.1-4c0.9-0.6,2.7-2.6,4-3.8C167.9,351.3,168.2,346.4,168.2,346.4z"/>
		<path class="st46" d="M167.4,344.9c-1.2,0.4-2.4,0.9-3.6,1.5c-1.1,0.6-2.2,1.3-3.1,2.1c0.1,0.1,0.1,0.2,0.1,0.3
			c-0.3,1.5-0.7,2.9-0.3,4.4c0,0,0,0.1,0,0.1c0,0,0,0,0,0c0.1,0.2,0,0.4-0.2,0.4c0,0.1-0.1,0.2-0.2,0.2c-0.1,0-0.3,0.1-0.4,0.1
			c0,0.1,0,0.2,0,0.3c0,0.3-0.1,0.5-0.2,0.8c0,0,0,0.1-0.1,0.1c0,0.2-0.2,0.3-0.3,0.3c0,0,0,0,0,0c-0.3,0.1-0.6,0-0.8,0
			c-0.2,0-0.3,0-0.5,0c-0.1,0-0.2,0.1-0.3,0.1c0,0,0,0.1,0,0.1c0,0.2,0.1,0.3,0.1,0.5c0,0.3,0.1,0.5,0.1,0.8c0,0.1,0,0.1-0.1,0.2
			c0,0.1-0.1,0.1-0.2,0.1c-0.2,0-0.3,0.1-0.5,0.1c0,0.1-0.1,0.1-0.1,0.1c0,0.1,0,0.1-0.1,0.2c-0.7,0.8-1.4,1.6-1.8,2.6
			c-0.1,0.3-0.2,0.6-0.5,0.9c-0.1,0.1-0.3,0.2-0.4,0.2c-0.1,0-0.3-0.1-0.4,0c-0.2,0.1-0.4,0.4-0.5,0.6c-0.1,0.2-0.3,0.5-0.4,0.7
			c-0.3,0.6-0.7,1.5-1.4,1.6c0.2,0.3,0.1,0.5-0.1,0.8c0,0-0.1,0.1-0.1,0.1c0,0,0,0,0,0.1c0,0.2-0.2,0.3-0.4,0.2c0,0,0,0.1,0,0.1
			c0,0.1,0.1,0.2,0.1,0.3c0.6,0.3,1,0.6,1.6,0.9c0.9,0.4,2.1,1.5,4,1.5c0.5-1.4,1-2.5,1.1-3.3c0.2-1,0.8-2.2,1.2-3.1
			c0.7-1.9,1.4-2.6,2.1-4c0.9-0.6,2.7-2.6,4-3.8c2.9-2.5,3.1-7.5,3.1-7.5C168,345.8,167.7,345.3,167.4,344.9z"/>
		<path class="st13" d="M180.9,352c0,0-0.5,4.1-0.9,7.5c-0.3,2.5-0.4,5.4-1.1,6.2c0,0-0.2,0.2-0.4,0.3c-1,0-9.2-6.5-14-9.8
			c-4.8-3.3-3.8-7.6-2.1-8.6c1.6-1.1,2.9-0.4,4,0.7l2.8,3.8l6,6.3c0.1,0.2,0.3,0.3,0.4,0.5l0.6,0.9l0.9,0.9l2.1-8.9
			c0,0-0.7-1.3-0.7-1.8c0-1,0-1.8,0.1-2.3c0,0,0.5-0.1,0.5,1.1l0,0.6c0,0,0.4,0.1,1-1.5c0-0.1,0.1-0.3,0.1-0.5
			c0-0.3-0.1-0.4-0.1-0.6c0-0.1,0.1-0.3,0.2-0.5c0.1,0,0.2-0.1,0.3-0.1c0.5,0.1,1.4,1.2,1.6,1.7c0.2,0.5-0.2,2.3-0.3,2.7
			C181.8,350.8,181,351.8,180.9,352z"/>
		<path class="st47" d="M182.3,347.8c-0.1-0.2-0.3-0.5-0.5-0.8c0,1.1-0.2,2.1-0.8,3.1c-0.3,0.5-0.6,0.9-0.6,1.5
			c-0.1,0.6,0.1,1.2,0.2,1.8c0.1,0.5,0,1,0,1.5c0.2-1.7,0.3-2.9,0.3-2.9c0.1-0.2,0.9-1.2,1-1.5C182.1,350.1,182.5,348.3,182.3,347.8
			z"/>
		<path class="st47" d="M180,355.9c-0.3,0.6-0.2,1.2-0.6,1.9c-0.3,0.6-0.8,2.5-1.1,3.1c-0.2,0.6-0.9,1.7-0.9,1.7
			c-1.1-0.7-3.8-2.9-4.7-3.8c-0.9-0.9-1.8-1.8-2.7-2.6c-0.8-0.7-1.6-1.8-2.7-2c-0.4-0.1-0.5-0.5-0.4-0.8c-1.1-0.5-2-1.3-2.8-2.1
			c-0.9-0.9-1.9-2.1-2.4-3.4c-1.3,1.5-1.7,5.2,2.6,8.2c4.8,3.3,13,9.8,14,9.8c0.1-0.1,0.4-0.3,0.4-0.3c0.8-0.8,0.8-3.7,1.1-6.2
			c0.2-1.3,0.7-5.4,0.8-6.7C180.7,353.4,180.3,355.3,180,355.9z"/>
		<path class="st13" d="M168,346.9c-0.3-0.7-0.5-1.3-1.2-2.2c-0.8-1.1-1.8-1.9-2.4-2.3c0.8-0.9,1.6-2.1,2.5-3.3c1-1.5,2-3.1,2.2-3.9
			c1.1,2.3,2.2,4.7,3.3,7l-3.4,3.6L168,346.9z"/>
		<path class="st48" d="M170.4,338.2c-0.3,0.4-0.6,0.8-0.9,1.2c-0.8,1-1.7,2.1-2.1,3.4c0.2,0.7-0.2,2.1-0.4,2.4
			c0.2,0.4,0.7,1.3,1,1.9c0.5-0.7,0.8-1.1,0.9-1.1l3.5-3.6C171.7,340.9,171,339.5,170.4,338.2z"/>
		<path class="st13" d="M172.9,336.9c0.2-0.3,0.2-0.7,0-1c-0.4-0.6-1.3-0.5-1.6,0.2c-0.3,0.8-0.7,1.2-0.6,1.6c0,0.3,0.5,0.7,0.9,0.5
			"/>
		<path class="st0" d="M165.2,357c0.4-0.3,3.2-3.5,4.7-4.6c-1-1.8-1-2.3-1.7-3.6c-1.3-2.3-4-3.2-6-2.1s-2.3,3.7-1.2,6.1
			C162,355,164.4,356.4,165.2,357z"/>
		<path class="st49" d="M166.4,352.4c-0.8-0.5-1.6-1.1-2.4-1.6c-0.8-0.6-1.4-1.3-1.7-2.2c-0.1-0.3-0.1-0.8-0.2-1
			c-0.1-0.1-0.1-0.2-0.2-0.3c-0.1-0.1-0.1-0.1-0.1-0.2c0,0,0,0,0,0c0,0,0,0-0.1,0c-1.5,1.2-1.7,3.6-0.7,5.7c1,2.2,3.4,3.6,4.2,4.1
			c0.9-0.7,1.6-1.7,2.4-2.5c0.2-0.2,0.8-0.6,0.7-0.8c0-0.2-0.9-0.6-1.1-0.7C166.9,352.8,166.7,352.6,166.4,352.4z"/>
		<path class="st50" d="M177.5,340.4l-0.7-0.9l-1.1-0.3l0.7,0.7l0.6,0.8c0.1,0.1,0.2,0.1,0.3,0.1l0,0
			C177.6,340.6,177.6,340.5,177.5,340.4z"/>
		<path class="st13" d="M178.1,341.1L178.1,341.1l-1,0.7c-0.2,0.3-0.3,0.5-0.5,0.9c-0.2,0.5-0.6,1.1-0.8,1.6
			c-0.1,0.2-0.4,0.3-0.6,0.1l-0.5-0.4c-0.9,0.5-1.8,0.5-3.2,1.5c-0.4,0.2-1-0.4-1.2-0.7c-1-1.6-1.4-1.8-1.2-3.7c0-0.3,1-2,1.1-2.3
			c-0.9-1-1.6-4.5,0.4-6.4c3.6-3.2,8.8-1.4,10.2,3.4C181.5,338.4,179.3,340.3,178.1,341.1z"/>
		<path class="st37" d="M162.2,411l-2.7-0.9l-1.7-1l-0.5-1c0-0.1-0.1-0.1-0.2-0.1c0,0-0.3,0.1-0.4,0.2c-0.1,0.1,0,0.2,0,0.2l0,0.4
			l-2.2-0.1l-1.5-0.9l-0.1,0.6l0.3,0.5l-0.5,1.7l-0.4,0.1l-0.2,1.1h10c0.2,0,0.3-0.1,0.2-0.3L162.2,411z"/>
		<path class="st51" d="M152.7,410.5l-0.3,0.1l-0.3,1.3h10.2c0.1-0.1,0.2-0.2,0.2-0.3l-0.1-0.5L162,411l0,0.1
			c0.1,0.2-0.1,0.4-0.3,0.4l-2.4,0c-0.4,0-0.7,0-1-0.1l-0.6-0.1c-0.2,0-0.4-0.1-0.6,0l-1.6,0.1c-0.3,0-1.3,0-1.6-0.1l-0.4-0.1
			C153.2,411,152.8,410.8,152.7,410.5L152.7,410.5z"/>
		<path class="st37" d="M147.4,408.6l-2.6-1l-1-1.3l-0.1-0.7c0-0.1-0.1-0.1-0.1-0.1c0,0-0.3,0.1-0.4,0.2c-0.1,0.1,0,0.2,0,0.2
			l-0.1,0.7l-1.9-0.7l-0.9-1.2l-0.3,0.4l0.1,0.4l-0.9,1.2l-0.3,0l-0.5,0.8l3.5,1.6h5.6c0.1,0,0.2-0.1,0.2-0.3L147.4,408.6z"/>
		<path class="st51" d="M147.4,408.6l-0.4,0.3h-2.2l-2.8-0.2l-1.6-1.1l-1.4-0.7l-0.3,0l-0.5,0.8l3.5,1.6h5.6c0.1,0,0.2-0.1,0.2-0.3
			L147.4,408.6z"/>
		<g>
			<g>
				<path class="st52" d="M168.3,337.8c0.6,0,0.6-0.9,0-0.9C167.7,336.9,167.7,337.8,168.3,337.8L168.3,337.8z"/>
			</g>
		</g>
		<path class="st52" d="M183.4,335.1c-0.1-1.2-0.5-2.7-0.6-3.2c-0.1-0.3-0.1-0.7-0.4-0.9c-0.2-0.2-0.4-0.3-0.7-0.4
			c-0.6-0.4-0.6-1.3-1.2-1.7c-0.6-0.4-1.3-0.5-1.9-0.8c-0.6-0.3-0.9-0.8-1.5-1.1c-0.7-0.3-1.5-0.1-2.2-0.3c-0.3-0.1-0.5-0.2-0.8-0.3
			c-0.5-0.1-1.1,0-1.5,0.4c-0.1,0.1-0.2,0.3-0.4,0.4c-0.3,0.2-0.8,0.1-1.2,0.2c-0.9,0.2-1.2,1.3-1.8,1.9c-0.8,0.7-1.5,0.8-1.9,1.8
			c-0.3,0.9-0.1,2.1-0.4,3.1c-0.3,0.8,0,1.6-0.2,2.4c-0.2,0.6-0.8,1-0.5,1.7c0.3,0.5,1.1,0.9,1.7,0.9c0.5,0,1.1-0.2,1.6-0.2
			c0.5,0,1-0.4,1.3-0.8c0.3-0.4,0.2-0.8,0.4-1.2c0.1-0.3,0.2-0.5,0.4-0.9c0.3-0.6,1.1-0.8,1.5-0.2c0.2,0.3,0.2,0.7,0,0.9l0.6,0.4
			c0,0,0.6-0.7,0.6-0.7c-0.2,0.2,1.4,0.4,1.5,0.4c0.2,0.1,0.3,0.2,0.4,0.3c0.6,0.4,1.2,0.5,1.9,0.4c0,0.2,0.1,0.5,0.3,0.7
			c0.3,0.4,0.6,0.7,1,0.7c0.3,0,0.6-0.1,0.9-0.2c0.4-0.1,0.9-0.1,1.3-0.1c0.6-0.1,1.1-0.4,1.4-0.9c0.1-0.2,0.2-0.5,0.1-0.8
			C183.4,336.7,183.5,336,183.4,335.1z"/>
	</g>
	<line class="st91" x1="39.6" y1="662.2" x2="102" y2="401.2"/>
	<line class="st91" x1="25" y1="655.1" x2="87.7" y2="395.1"/>
	<g>
		<line class="st91" x1="93.9" y1="425.1" x2="81.5" y2="418"/>
		<line class="st91" x1="88.1" y1="450.3" x2="75.8" y2="443.2"/>
		<line class="st91" x1="82.4" y1="475.6" x2="70" y2="468.4"/>
		<line class="st91" x1="76.7" y1="500.8" x2="64.3" y2="493.7"/>
		<line class="st91" x1="70.9" y1="526" x2="58.6" y2="518.9"/>
		<line class="st91" x1="65.2" y1="551.3" x2="52.8" y2="544.1"/>
		<line class="st91" x1="59.5" y1="576.5" x2="47.1" y2="569.4"/>
		<line class="st91" x1="53.7" y1="601.7" x2="41.4" y2="594.6"/>
		<line class="st91" x1="48" y1="627" x2="35.6" y2="619.9"/>
		<line class="st91" x1="42.3" y1="652.2" x2="29.9" y2="645.1"/>
	</g>
</g>
</svg>
